<?xml version="1.0" encoding="iso-8859-1"?>
<!-- Generator: Adobe Illustrator 17.1.0, SVG Export Plug-In . SVG Version: 6.00 Build 0)  -->
<!DOCTYPE svg PUBLIC "-//W3C//DTD SVG 1.1//EN" "http://www.w3.org/Graphics/SVG/1.1/DTD/svg11.dtd">
<svg version="1.1" id="Capa_1" xmlns="http://www.w3.org/2000/svg" xmlns:xlink="http://www.w3.org/1999/xlink" x="0px" y="0px"
	 viewBox="0 0 294 294" style="enable-background:new 0 0 294 294;" xml:space="preserve">
<path d="M50.483,59.194V279c0,8.284-6.716,15-15,15s-15-6.716-15-15V59.194c-9-5.34-16.334-15.751-16.334-27.694
	C4.149,14.131,18.363,0,35.732,0s31.375,14.131,31.375,31.5C67.107,43.442,60.483,53.854,50.483,59.194z M289.236,77.158
	c-0.854-9.487-8.14-16.373-17.324-16.373c-8.643,0-16.264,5.871-27.8,14.758c-5.781,4.453-17.518,13.495-22.536,14.879
	c-3.308-1.433-10.615-6.798-16.061-10.796c-17.292-12.695-41.06-30.105-66.751-29.625c-39.699,0.816-64.777,31.324-65.818,32.622
	c-2.135,2.662-3.464,5.972-3.464,9.384v121.54c0,5.986,3.735,11.39,9.23,13.763c5.499,2.373,11.969,1.241,16.325-2.863
	c6.308-5.943,27.961-22.908,43.986-22.908c8.559,0,21.924,5.774,34.829,11.358c17.183,7.435,36.668,15.861,55.514,15.861
	c1.999,0,3.992-0.095,5.91-0.281c39.435-3.839,52.427-35.009,52.962-36.334c0.693-1.723,1.063-3.558,1.086-5.414
	C289.448,176.988,290.497,91.161,289.236,77.158z"/>
<g>
</g>
<g>
</g>
<g>
</g>
<g>
</g>
<g>
</g>
<g>
</g>
<g>
</g>
<g>
</g>
<g>
</g>
<g>
</g>
<g>
</g>
<g>
</g>
<g>
</g>
<g>
</g>
<g>
</g>
</svg>
